<svg xmlns="http://www.w3.org/2000/svg" width="46" height="46" viewBox="0 0 46 46">
  <g id="Group_18091" data-name="Group 18091" transform="translate(-1454 -4657)">
    <circle id="Ellipse_2" data-name="Ellipse 2" cx="23" cy="23" r="23" transform="translate(1454 4657)" fill="#fff" opacity="0.1"/>
    <path id="Icon_awesome-linkedin-in" data-name="Icon awesome-linkedin-in" d="M3.9,17.409H.288V5.786H3.9ZM2.09,4.2a2.1,2.1,0,1,1,2.09-2.11A2.108,2.108,0,0,1,2.09,4.2ZM17.4,17.409H13.8V11.751c0-1.348-.027-3.078-1.876-3.078-1.876,0-2.164,1.465-2.164,2.98v5.755H6.158V5.786H9.619V7.372H9.67a3.792,3.792,0,0,1,3.415-1.877c3.653,0,4.324,2.405,4.324,5.53v6.384Z" transform="translate(1468 4670.64)" fill="#fff"/>
  </g>
</svg>
