<svg xmlns="http://www.w3.org/2000/svg" width="48" height="48" viewBox="0 0 48 48">
  <g id="Group_5430" data-name="Group 5430" transform="translate(-662 -3781)">
    <circle id="Ellipse_2" data-name="Ellipse 2" cx="24" cy="24" r="24" transform="translate(662 3781)" fill="#001e6c" opacity="0.1"/>
    <path id="Icon_awesome-linkedin-in" data-name="Icon awesome-linkedin-in" d="M4.066,18.166H.3V6.038H4.066ZM2.181,4.384a2.191,2.191,0,1,1,2.181-2.2A2.2,2.2,0,0,1,2.181,4.384Zm15.98,13.782H14.4v-5.9c0-1.407-.028-3.211-1.958-3.211-1.958,0-2.258,1.529-2.258,3.11v6.005H6.425V6.038h3.612V7.692h.053a3.957,3.957,0,0,1,3.563-1.958c3.812,0,4.512,2.51,4.512,5.77v6.662Z" transform="translate(676.609 3795.233)" fill="#001e6c"/>
  </g>
</svg>
