<svg xmlns="http://www.w3.org/2000/svg" width="46" height="46" viewBox="0 0 46 46">
  <g id="Group_18090" data-name="Group 18090" transform="translate(-1400 -4657)">
    <circle id="Ellipse_1" data-name="Ellipse 1" cx="23" cy="23" r="23" transform="translate(1400 4657)" fill="#fff" opacity="0.1"/>
    <path id="Icon_awesome-twitter" data-name="Icon awesome-twitter" d="M17.977,7.436c.013.178.013.356.013.534A11.6,11.6,0,0,1,6.306,19.654,11.6,11.6,0,0,1,0,17.811a8.495,8.495,0,0,0,.992.051,8.224,8.224,0,0,0,5.1-1.754,4.114,4.114,0,0,1-3.84-2.848,5.179,5.179,0,0,0,.776.064,4.343,4.343,0,0,0,1.081-.14A4.107,4.107,0,0,1,.814,9.153V9.1a4.136,4.136,0,0,0,1.856.521A4.113,4.113,0,0,1,1.4,4.131a11.673,11.673,0,0,0,8.467,4.3,4.636,4.636,0,0,1-.1-.941,4.11,4.11,0,0,1,7.107-2.81,8.085,8.085,0,0,0,2.606-.992,4.1,4.1,0,0,1-1.805,2.263,8.232,8.232,0,0,0,2.365-.636,8.828,8.828,0,0,1-2.06,2.123Z" transform="translate(1413 4668.619)" fill="#fff"/>
  </g>
</svg>
