<svg xmlns="http://www.w3.org/2000/svg" width="48" height="48" viewBox="0 0 48 48">
  <g id="Group_5429" data-name="Group 5429" transform="translate(-1400 -3576)">
    <circle id="Ellipse_1" data-name="Ellipse 1" cx="24" cy="24" r="24" transform="translate(1400 3576)" fill="#001e6c" opacity="0.1"/>
    <path id="Icon_awesome-twitter" data-name="Icon awesome-twitter" d="M18.759,7.613c.013.186.013.371.013.557A12.108,12.108,0,0,1,6.58,20.362,12.109,12.109,0,0,1,0,18.438a8.864,8.864,0,0,0,1.035.053,8.582,8.582,0,0,0,5.32-1.831,4.293,4.293,0,0,1-4.007-2.972,5.4,5.4,0,0,0,.809.066,4.532,4.532,0,0,0,1.128-.146A4.286,4.286,0,0,1,.849,9.4V9.351a4.316,4.316,0,0,0,1.937.544A4.292,4.292,0,0,1,1.459,4.163a12.18,12.18,0,0,0,8.836,4.484,4.837,4.837,0,0,1-.106-.982A4.289,4.289,0,0,1,17.6,4.734,8.437,8.437,0,0,0,20.324,3.7a4.274,4.274,0,0,1-1.884,2.361A8.59,8.59,0,0,0,20.908,5.4a9.211,9.211,0,0,1-2.149,2.215Z" transform="translate(1413.565 3588.271)" fill="#001e6c"/>
  </g>
</svg>
