<svg xmlns="http://www.w3.org/2000/svg" width="46" height="46" viewBox="0 0 46 46">
  <g id="Group_4" data-name="Group 4" transform="translate(-1749 -1540)">
    <circle id="Ellipse_4" data-name="Ellipse 4" cx="23" cy="23" r="23" transform="translate(1749 1540)" fill="#fff" opacity="0.1"/>
    <path id="Icon_awesome-youtube" data-name="Icon awesome-youtube" d="M19.618,6.586A2.383,2.383,0,0,0,17.941,4.9a56.313,56.313,0,0,0-7.409-.4,56.313,56.313,0,0,0-7.409.4A2.383,2.383,0,0,0,1.446,6.586a25,25,0,0,0-.4,4.594,25,25,0,0,0,.4,4.594,2.347,2.347,0,0,0,1.677,1.661,56.313,56.313,0,0,0,7.409.4,56.312,56.312,0,0,0,7.409-.4,2.347,2.347,0,0,0,1.677-1.661,25,25,0,0,0,.4-4.594,25,25,0,0,0-.4-4.594ZM8.593,14V8.361l4.957,2.82L8.593,14Z" transform="translate(1761.95 1551.5)" fill="#fff"/>
  </g>
</svg>
