<svg xmlns="http://www.w3.org/2000/svg" width="137.586" height="40.325" viewBox="0 0 137.586 40.325">
  <g id="XMLID_294_" transform="translate(-1 -1)">
    <path id="XMLID_101_" d="M0,0H40.247V40.247H0Z" transform="translate(1 1)" fill="#fff"/>
    <g id="XMLID_96_" transform="translate(8.6 8.443)">
      <path id="XMLID_98_" d="M30.152,54.99V51.543H33.13V33.026H30.1V29.5h5.85L50.915,47.808V33.026H47.86V29.5h9.768v3.526H54.7V54.99H52.117L36.969,36.682V51.543h3.056V54.99Z" transform="translate(-30.1 -29.5)" fill="#001e6c"/>
    </g>
    <path id="XMLID_92_" d="M192.411,42.2c-.026,6.425-4.022,12.719-12.38,12.719-8.384,0-12.432-6.268-12.432-12.719,0-7.13,4.753-12.8,12.458-12.8C188.311,29.426,192.438,35.694,192.411,42.2Zm-12.38-10c-6.216,0-9.428,4.6-9.428,9.977,0,4.988,3,9.846,9.428,9.846s9.324-4.988,9.324-9.846C189.408,37.209,186.431,32.273,180.032,32.195Z" transform="translate(-123.089 -20.983)" fill="#fff"/>
    <path id="XMLID_86_" d="M268.878,32.373V29.5h13.659c4.7,0,8.514,2.011,8.514,7.13a5.527,5.527,0,0,1-3.787,5.276,6.252,6.252,0,0,1,4.623,6.059c0,5.8-4.6,7.026-9.35,7.026H268.8v-2.9h3.186V32.373Zm6.242,8.1h7.574c3.03,0,5.276-1.384,5.276-3.787,0-3.239-2.324-4.309-5.432-4.309H275.12Zm0,11.622h7.443c2.664,0,6.164-.627,6.164-4.231,0-3.212-3.291-4.518-6.007-4.518h-7.574v8.749Z" transform="translate(-197.858 -21.057)" fill="#fff"/>
    <path id="XMLID_84_" d="M381.664,51.991l.1-3.944h2.847V54.89H364.531V52.018h3.03V32.325H364.4V29.4h9.35v2.925h-3.03V51.991Z" transform="translate(-268.49 -20.983)" fill="#fff"/>
    <path id="XMLID_82_" d="M445.9,54.89V51.965h3.16V32.273h-3.108V29.4h20.763v6.764h-2.847l-.1-3.865h-11.6v8.122H463.79v2.951H452.168v8.514h12.118l.1-3.891h2.847V54.89Z" transform="translate(-328.704 -20.983)" fill="#fff"/>
    <g id="Group_1" data-name="Group 1" transform="translate(44.459 36.833)">
      <path id="Path_1" data-name="Path 1" d="M168.471,142.439h.548v.5h-1.593v-.5h.522V139.1H167.4v-.5h2.455a1.412,1.412,0,1,1,0,2.821h-1.384Zm1.384-3.343h-1.384v1.854h1.384A.927.927,0,1,0,169.855,139.1Z" transform="translate(-167.4 -138.496)" fill="#fff"/>
      <path id="Path_2" data-name="Path 2" d="M219.084,142.835h-1.541v-.5h.548c-.131-.261-.235-.522-.34-.757h-2.22c-.1.235-.235.5-.34.757h.522v.5H214.2v-.5h.418l1.071-2.351.444-.992h-.5v-.5h1.332l1.7,3.813h.418Zm-1.541-1.724c-.261-.6-.522-1.228-.862-2.063-.366.836-.653,1.463-.914,2.063Z" transform="translate(-201.977 -138.422)" fill="#fff"/>
      <path id="Path_3" data-name="Path 3" d="M267.6,142.413h.6v.5h-1.672v-.5h.522V139.1H266.5v-.5h2.429a1.293,1.293,0,0,1,1.463,1.306,1.268,1.268,0,0,1-1.358,1.332l.94,1.175h.575v.5h-1.2v-.444l-.94-1.2h-.862v1.149Zm1.358-1.619a.827.827,0,0,0,.94-.888.818.818,0,0,0-.914-.836h-1.358v1.7h1.332Z" transform="translate(-240.618 -138.496)" fill="#fff"/>
      <path id="Path_4" data-name="Path 4" d="M316.5,139.07l-.026.679H316V138.6h3.578v1.149h-.47l-.026-.679h-1.019v3.343h.548v.5h-1.645v-.5h.548V139.07Z" transform="translate(-277.19 -138.496)" fill="#fff"/>
      <path id="Path_5" data-name="Path 5" d="M364.971,142.439h.548v.5h-1.593v-.5h.522V139.1H363.9v-.5h.914l2.638,3.317V139.1H366.9v-.5H368.5v.5h-.522v3.813h-.366l-2.638-3.291Z" transform="translate(-312.58 -138.496)" fill="#fff"/>
      <path id="Path_6" data-name="Path 6" d="M416,142.835v-.5h.548V139h-.522v-.5h3.526v1.149h-.47l-.026-.653H417.1v1.384h1.959v.5H417.1v1.436h2.063l.026-.653h.47v1.175Z" transform="translate(-351.072 -138.422)" fill="#fff"/>
      <path id="Path_7" data-name="Path 7" d="M465.6,142.413h.6v.5h-1.672v-.5h.522V139.1H464.5v-.5h2.429a1.293,1.293,0,0,1,1.463,1.306,1.268,1.268,0,0,1-1.358,1.332l.94,1.175h.575v.5h-1.2v-.444l-.94-1.2h-.862v1.149Zm1.358-1.619a.827.827,0,0,0,.94-.888.818.818,0,0,0-.914-.836h-1.358v1.7h1.332Z" transform="translate(-386.906 -138.496)" fill="#fff"/>
      <path id="Path_8" data-name="Path 8" d="M517.934,138.7v.862h-.47l-.026-.627a1.975,1.975,0,0,0-1.019-.261c-.548,0-1.1.209-1.1.731,0,.47.522.627,1.123.731.888.131,1.75.34,1.75,1.28,0,1.019-.966,1.28-1.776,1.28a2.289,2.289,0,0,1-1.619-.575v-.862h.5l.026.6a2.1,2.1,0,0,0,1.123.34c.522,0,1.254-.157,1.254-.784,0-.6-.836-.705-1.28-.784-.836-.131-1.593-.34-1.593-1.228s.888-1.2,1.619-1.2A2.486,2.486,0,0,1,517.934,138.7Z" transform="translate(-424.069 -138.2)" fill="#fff"/>
    </g>
  </g>
</svg>
